<mxfile host="app.diagrams.net" agent="Mozilla/5.0 (X11; Linux x86_64; rv:136.0) Gecko/20100101 Firefox/136.0" version="26.1.1" pages="3">
  <diagram name="Page-1" id="7BxyX-JuwY8OfFa68_WA">
    <mxGraphModel dx="921" dy="506" grid="1" gridSize="10" guides="1" tooltips="1" connect="1" arrows="1" fold="1" page="1" pageScale="1" pageWidth="850" pageHeight="1100" math="0" shadow="0">
      <root>
        <mxCell id="0" />
        <mxCell id="1" parent="0" />
        <mxCell id="ImHuEV7vQ7CyUbTSZgIe-1" value="" style="rounded=0;whiteSpace=wrap;html=1;" vertex="1" parent="1">
          <mxGeometry x="280" y="80" width="40" height="40" as="geometry" />
        </mxCell>
        <mxCell id="ImHuEV7vQ7CyUbTSZgIe-2" value="" style="rounded=0;whiteSpace=wrap;html=1;" vertex="1" parent="1">
          <mxGeometry x="320" y="80" width="40" height="40" as="geometry" />
        </mxCell>
        <mxCell id="ImHuEV7vQ7CyUbTSZgIe-3" value="" style="rounded=0;whiteSpace=wrap;html=1;" vertex="1" parent="1">
          <mxGeometry x="360" y="80" width="40" height="40" as="geometry" />
        </mxCell>
        <mxCell id="ImHuEV7vQ7CyUbTSZgIe-4" value="" style="rounded=0;whiteSpace=wrap;html=1;" vertex="1" parent="1">
          <mxGeometry x="400" y="80" width="40" height="40" as="geometry" />
        </mxCell>
        <mxCell id="ImHuEV7vQ7CyUbTSZgIe-5" value="" style="rounded=0;whiteSpace=wrap;html=1;" vertex="1" parent="1">
          <mxGeometry x="440" y="80" width="40" height="40" as="geometry" />
        </mxCell>
        <mxCell id="ImHuEV7vQ7CyUbTSZgIe-6" value="" style="rounded=0;whiteSpace=wrap;html=1;" vertex="1" parent="1">
          <mxGeometry x="480" y="80" width="40" height="40" as="geometry" />
        </mxCell>
        <mxCell id="ImHuEV7vQ7CyUbTSZgIe-7" value="" style="rounded=0;whiteSpace=wrap;html=1;" vertex="1" parent="1">
          <mxGeometry x="520" y="80" width="40" height="40" as="geometry" />
        </mxCell>
        <mxCell id="ImHuEV7vQ7CyUbTSZgIe-8" value="" style="rounded=0;whiteSpace=wrap;html=1;" vertex="1" parent="1">
          <mxGeometry x="560" y="80" width="40" height="40" as="geometry" />
        </mxCell>
        <mxCell id="ImHuEV7vQ7CyUbTSZgIe-9" value="" style="shape=curlyBracket;whiteSpace=wrap;html=1;rounded=1;labelPosition=left;verticalLabelPosition=middle;align=right;verticalAlign=middle;rotation=90;size=0.5;" vertex="1" parent="1">
          <mxGeometry x="430" y="-95" width="20" height="315" as="geometry" />
        </mxCell>
        <mxCell id="ImHuEV7vQ7CyUbTSZgIe-10" value="state width" style="text;html=1;align=center;verticalAlign=middle;whiteSpace=wrap;rounded=0;" vertex="1" parent="1">
          <mxGeometry x="410" y="20" width="60" height="30" as="geometry" />
        </mxCell>
        <mxCell id="ImHuEV7vQ7CyUbTSZgIe-11" value="AddRoundConstants" style="rounded=1;whiteSpace=wrap;html=1;" vertex="1" parent="1">
          <mxGeometry x="280" y="160" width="320" height="40" as="geometry" />
        </mxCell>
        <mxCell id="ImHuEV7vQ7CyUbTSZgIe-12" style="edgeStyle=orthogonalEdgeStyle;rounded=0;orthogonalLoop=1;jettySize=auto;html=1;exitX=0.5;exitY=1;exitDx=0;exitDy=0;entryX=0.061;entryY=-0.083;entryDx=0;entryDy=0;entryPerimeter=0;" edge="1" parent="1" source="ImHuEV7vQ7CyUbTSZgIe-1" target="ImHuEV7vQ7CyUbTSZgIe-11">
          <mxGeometry relative="1" as="geometry" />
        </mxCell>
        <mxCell id="ImHuEV7vQ7CyUbTSZgIe-19" style="edgeStyle=orthogonalEdgeStyle;rounded=0;orthogonalLoop=1;jettySize=auto;html=1;exitX=0.5;exitY=1;exitDx=0;exitDy=0;entryX=0.061;entryY=-0.083;entryDx=0;entryDy=0;entryPerimeter=0;" edge="1" parent="1">
          <mxGeometry relative="1" as="geometry">
            <mxPoint x="339.5" y="120" as="sourcePoint" />
            <mxPoint x="339.5" y="157" as="targetPoint" />
            <Array as="points">
              <mxPoint x="339.5" y="130" />
              <mxPoint x="339.5" y="130" />
            </Array>
          </mxGeometry>
        </mxCell>
        <mxCell id="ImHuEV7vQ7CyUbTSZgIe-20" style="edgeStyle=orthogonalEdgeStyle;rounded=0;orthogonalLoop=1;jettySize=auto;html=1;exitX=0.5;exitY=1;exitDx=0;exitDy=0;entryX=0.061;entryY=-0.083;entryDx=0;entryDy=0;entryPerimeter=0;" edge="1" parent="1">
          <mxGeometry relative="1" as="geometry">
            <mxPoint x="379.5" y="120" as="sourcePoint" />
            <mxPoint x="379.5" y="157" as="targetPoint" />
            <Array as="points">
              <mxPoint x="379.5" y="130" />
              <mxPoint x="379.5" y="130" />
            </Array>
          </mxGeometry>
        </mxCell>
        <mxCell id="ImHuEV7vQ7CyUbTSZgIe-21" style="edgeStyle=orthogonalEdgeStyle;rounded=0;orthogonalLoop=1;jettySize=auto;html=1;exitX=0.5;exitY=1;exitDx=0;exitDy=0;entryX=0.061;entryY=-0.083;entryDx=0;entryDy=0;entryPerimeter=0;" edge="1" parent="1">
          <mxGeometry relative="1" as="geometry">
            <mxPoint x="419.5" y="120" as="sourcePoint" />
            <mxPoint x="419.5" y="157" as="targetPoint" />
            <Array as="points">
              <mxPoint x="419.5" y="130" />
              <mxPoint x="419.5" y="130" />
            </Array>
          </mxGeometry>
        </mxCell>
        <mxCell id="ImHuEV7vQ7CyUbTSZgIe-22" style="edgeStyle=orthogonalEdgeStyle;rounded=0;orthogonalLoop=1;jettySize=auto;html=1;exitX=0.5;exitY=1;exitDx=0;exitDy=0;entryX=0.061;entryY=-0.083;entryDx=0;entryDy=0;entryPerimeter=0;" edge="1" parent="1">
          <mxGeometry relative="1" as="geometry">
            <mxPoint x="460" y="120" as="sourcePoint" />
            <mxPoint x="460" y="157" as="targetPoint" />
          </mxGeometry>
        </mxCell>
        <mxCell id="ImHuEV7vQ7CyUbTSZgIe-23" style="edgeStyle=orthogonalEdgeStyle;rounded=0;orthogonalLoop=1;jettySize=auto;html=1;exitX=0.5;exitY=1;exitDx=0;exitDy=0;entryX=0.061;entryY=-0.083;entryDx=0;entryDy=0;entryPerimeter=0;" edge="1" parent="1">
          <mxGeometry relative="1" as="geometry">
            <mxPoint x="499.5" y="120" as="sourcePoint" />
            <mxPoint x="499.5" y="157" as="targetPoint" />
            <Array as="points">
              <mxPoint x="499.5" y="130" />
              <mxPoint x="499.5" y="130" />
            </Array>
          </mxGeometry>
        </mxCell>
        <mxCell id="ImHuEV7vQ7CyUbTSZgIe-24" style="edgeStyle=orthogonalEdgeStyle;rounded=0;orthogonalLoop=1;jettySize=auto;html=1;exitX=0.5;exitY=1;exitDx=0;exitDy=0;entryX=0.061;entryY=-0.083;entryDx=0;entryDy=0;entryPerimeter=0;" edge="1" parent="1">
          <mxGeometry relative="1" as="geometry">
            <mxPoint x="539.5" y="120" as="sourcePoint" />
            <mxPoint x="539.5" y="157" as="targetPoint" />
            <Array as="points">
              <mxPoint x="539.5" y="130" />
              <mxPoint x="539.5" y="130" />
            </Array>
          </mxGeometry>
        </mxCell>
        <mxCell id="ImHuEV7vQ7CyUbTSZgIe-25" style="edgeStyle=orthogonalEdgeStyle;rounded=0;orthogonalLoop=1;jettySize=auto;html=1;exitX=0.5;exitY=1;exitDx=0;exitDy=0;entryX=0.061;entryY=-0.083;entryDx=0;entryDy=0;entryPerimeter=0;" edge="1" parent="1">
          <mxGeometry relative="1" as="geometry">
            <mxPoint x="579.5" y="120" as="sourcePoint" />
            <mxPoint x="579.5" y="157" as="targetPoint" />
            <Array as="points">
              <mxPoint x="579.5" y="130" />
              <mxPoint x="579.5" y="130" />
            </Array>
          </mxGeometry>
        </mxCell>
        <mxCell id="ImHuEV7vQ7CyUbTSZgIe-26" value="S" style="rounded=0;whiteSpace=wrap;html=1;" vertex="1" parent="1">
          <mxGeometry x="285" y="245" width="30" height="30" as="geometry" />
        </mxCell>
        <mxCell id="ImHuEV7vQ7CyUbTSZgIe-27" value="S" style="rounded=0;whiteSpace=wrap;html=1;" vertex="1" parent="1">
          <mxGeometry x="325" y="245" width="30" height="30" as="geometry" />
        </mxCell>
        <mxCell id="ImHuEV7vQ7CyUbTSZgIe-34" style="edgeStyle=orthogonalEdgeStyle;rounded=0;orthogonalLoop=1;jettySize=auto;html=1;exitX=0.5;exitY=1;exitDx=0;exitDy=0;entryX=0.061;entryY=-0.083;entryDx=0;entryDy=0;entryPerimeter=0;" edge="1" parent="1">
          <mxGeometry relative="1" as="geometry">
            <mxPoint x="300.08" y="200" as="sourcePoint" />
            <mxPoint x="300.08" y="237" as="targetPoint" />
          </mxGeometry>
        </mxCell>
        <mxCell id="ImHuEV7vQ7CyUbTSZgIe-35" style="edgeStyle=orthogonalEdgeStyle;rounded=0;orthogonalLoop=1;jettySize=auto;html=1;exitX=0.5;exitY=1;exitDx=0;exitDy=0;entryX=0.061;entryY=-0.083;entryDx=0;entryDy=0;entryPerimeter=0;" edge="1" parent="1">
          <mxGeometry relative="1" as="geometry">
            <mxPoint x="339.58" y="200" as="sourcePoint" />
            <mxPoint x="339.58" y="237" as="targetPoint" />
            <Array as="points">
              <mxPoint x="339.58" y="210" />
              <mxPoint x="339.58" y="210" />
            </Array>
          </mxGeometry>
        </mxCell>
        <mxCell id="ImHuEV7vQ7CyUbTSZgIe-36" style="edgeStyle=orthogonalEdgeStyle;rounded=0;orthogonalLoop=1;jettySize=auto;html=1;exitX=0.5;exitY=1;exitDx=0;exitDy=0;entryX=0.061;entryY=-0.083;entryDx=0;entryDy=0;entryPerimeter=0;" edge="1" parent="1">
          <mxGeometry relative="1" as="geometry">
            <mxPoint x="379.58" y="200" as="sourcePoint" />
            <mxPoint x="379.58" y="237" as="targetPoint" />
            <Array as="points">
              <mxPoint x="379.58" y="210" />
              <mxPoint x="379.58" y="210" />
            </Array>
          </mxGeometry>
        </mxCell>
        <mxCell id="ImHuEV7vQ7CyUbTSZgIe-37" style="edgeStyle=orthogonalEdgeStyle;rounded=0;orthogonalLoop=1;jettySize=auto;html=1;exitX=0.5;exitY=1;exitDx=0;exitDy=0;entryX=0.061;entryY=-0.083;entryDx=0;entryDy=0;entryPerimeter=0;" edge="1" parent="1">
          <mxGeometry relative="1" as="geometry">
            <mxPoint x="419.58" y="200" as="sourcePoint" />
            <mxPoint x="419.58" y="237" as="targetPoint" />
            <Array as="points">
              <mxPoint x="419.58" y="210" />
              <mxPoint x="419.58" y="210" />
            </Array>
          </mxGeometry>
        </mxCell>
        <mxCell id="ImHuEV7vQ7CyUbTSZgIe-38" style="edgeStyle=orthogonalEdgeStyle;rounded=0;orthogonalLoop=1;jettySize=auto;html=1;exitX=0.5;exitY=1;exitDx=0;exitDy=0;entryX=0.061;entryY=-0.083;entryDx=0;entryDy=0;entryPerimeter=0;" edge="1" parent="1">
          <mxGeometry relative="1" as="geometry">
            <mxPoint x="460.08" y="200" as="sourcePoint" />
            <mxPoint x="460.08" y="237" as="targetPoint" />
          </mxGeometry>
        </mxCell>
        <mxCell id="ImHuEV7vQ7CyUbTSZgIe-39" style="edgeStyle=orthogonalEdgeStyle;rounded=0;orthogonalLoop=1;jettySize=auto;html=1;exitX=0.5;exitY=1;exitDx=0;exitDy=0;entryX=0.061;entryY=-0.083;entryDx=0;entryDy=0;entryPerimeter=0;" edge="1" parent="1">
          <mxGeometry relative="1" as="geometry">
            <mxPoint x="499.58" y="200" as="sourcePoint" />
            <mxPoint x="499.58" y="237" as="targetPoint" />
            <Array as="points">
              <mxPoint x="499.58" y="210" />
              <mxPoint x="499.58" y="210" />
            </Array>
          </mxGeometry>
        </mxCell>
        <mxCell id="ImHuEV7vQ7CyUbTSZgIe-40" style="edgeStyle=orthogonalEdgeStyle;rounded=0;orthogonalLoop=1;jettySize=auto;html=1;exitX=0.5;exitY=1;exitDx=0;exitDy=0;entryX=0.061;entryY=-0.083;entryDx=0;entryDy=0;entryPerimeter=0;" edge="1" parent="1">
          <mxGeometry relative="1" as="geometry">
            <mxPoint x="539.58" y="200" as="sourcePoint" />
            <mxPoint x="539.58" y="237" as="targetPoint" />
            <Array as="points">
              <mxPoint x="539.58" y="210" />
              <mxPoint x="539.58" y="210" />
            </Array>
          </mxGeometry>
        </mxCell>
        <mxCell id="ImHuEV7vQ7CyUbTSZgIe-41" style="edgeStyle=orthogonalEdgeStyle;rounded=0;orthogonalLoop=1;jettySize=auto;html=1;exitX=0.5;exitY=1;exitDx=0;exitDy=0;entryX=0.061;entryY=-0.083;entryDx=0;entryDy=0;entryPerimeter=0;" edge="1" parent="1">
          <mxGeometry relative="1" as="geometry">
            <mxPoint x="579.58" y="200" as="sourcePoint" />
            <mxPoint x="579.58" y="237" as="targetPoint" />
            <Array as="points">
              <mxPoint x="579.58" y="210" />
              <mxPoint x="579.58" y="210" />
            </Array>
          </mxGeometry>
        </mxCell>
        <mxCell id="ImHuEV7vQ7CyUbTSZgIe-42" value="S" style="rounded=0;whiteSpace=wrap;html=1;" vertex="1" parent="1">
          <mxGeometry x="365" y="245" width="30" height="30" as="geometry" />
        </mxCell>
        <mxCell id="ImHuEV7vQ7CyUbTSZgIe-43" value="S" style="rounded=0;whiteSpace=wrap;html=1;" vertex="1" parent="1">
          <mxGeometry x="405" y="245" width="30" height="30" as="geometry" />
        </mxCell>
        <mxCell id="ImHuEV7vQ7CyUbTSZgIe-44" value="S" style="rounded=0;whiteSpace=wrap;html=1;" vertex="1" parent="1">
          <mxGeometry x="445" y="245" width="30" height="30" as="geometry" />
        </mxCell>
        <mxCell id="ImHuEV7vQ7CyUbTSZgIe-45" value="S" style="rounded=0;whiteSpace=wrap;html=1;" vertex="1" parent="1">
          <mxGeometry x="485" y="245" width="30" height="30" as="geometry" />
        </mxCell>
        <mxCell id="ImHuEV7vQ7CyUbTSZgIe-46" value="S" style="rounded=0;whiteSpace=wrap;html=1;" vertex="1" parent="1">
          <mxGeometry x="525" y="245" width="30" height="30" as="geometry" />
        </mxCell>
        <mxCell id="ImHuEV7vQ7CyUbTSZgIe-47" value="S" style="rounded=0;whiteSpace=wrap;html=1;" vertex="1" parent="1">
          <mxGeometry x="565" y="245" width="30" height="30" as="geometry" />
        </mxCell>
        <mxCell id="ImHuEV7vQ7CyUbTSZgIe-48" value="MixLayer" style="rounded=1;whiteSpace=wrap;html=1;" vertex="1" parent="1">
          <mxGeometry x="280" y="320" width="320" height="40" as="geometry" />
        </mxCell>
        <mxCell id="ImHuEV7vQ7CyUbTSZgIe-49" style="edgeStyle=orthogonalEdgeStyle;rounded=0;orthogonalLoop=1;jettySize=auto;html=1;exitX=0.5;exitY=1;exitDx=0;exitDy=0;entryX=0.061;entryY=-0.083;entryDx=0;entryDy=0;entryPerimeter=0;" edge="1" parent="1">
          <mxGeometry relative="1" as="geometry">
            <mxPoint x="300.05" y="275" as="sourcePoint" />
            <mxPoint x="300.05" y="312" as="targetPoint" />
          </mxGeometry>
        </mxCell>
        <mxCell id="ImHuEV7vQ7CyUbTSZgIe-50" style="edgeStyle=orthogonalEdgeStyle;rounded=0;orthogonalLoop=1;jettySize=auto;html=1;exitX=0.5;exitY=1;exitDx=0;exitDy=0;entryX=0.061;entryY=-0.083;entryDx=0;entryDy=0;entryPerimeter=0;" edge="1" parent="1">
          <mxGeometry relative="1" as="geometry">
            <mxPoint x="339.55" y="275" as="sourcePoint" />
            <mxPoint x="339.55" y="312" as="targetPoint" />
            <Array as="points">
              <mxPoint x="339.55" y="285" />
              <mxPoint x="339.55" y="285" />
            </Array>
          </mxGeometry>
        </mxCell>
        <mxCell id="ImHuEV7vQ7CyUbTSZgIe-51" style="edgeStyle=orthogonalEdgeStyle;rounded=0;orthogonalLoop=1;jettySize=auto;html=1;exitX=0.5;exitY=1;exitDx=0;exitDy=0;entryX=0.061;entryY=-0.083;entryDx=0;entryDy=0;entryPerimeter=0;" edge="1" parent="1">
          <mxGeometry relative="1" as="geometry">
            <mxPoint x="379.55" y="275" as="sourcePoint" />
            <mxPoint x="379.55" y="312" as="targetPoint" />
            <Array as="points">
              <mxPoint x="379.55" y="285" />
              <mxPoint x="379.55" y="285" />
            </Array>
          </mxGeometry>
        </mxCell>
        <mxCell id="ImHuEV7vQ7CyUbTSZgIe-52" style="edgeStyle=orthogonalEdgeStyle;rounded=0;orthogonalLoop=1;jettySize=auto;html=1;exitX=0.5;exitY=1;exitDx=0;exitDy=0;entryX=0.061;entryY=-0.083;entryDx=0;entryDy=0;entryPerimeter=0;" edge="1" parent="1">
          <mxGeometry relative="1" as="geometry">
            <mxPoint x="419.55" y="275" as="sourcePoint" />
            <mxPoint x="419.55" y="312" as="targetPoint" />
            <Array as="points">
              <mxPoint x="419.55" y="285" />
              <mxPoint x="419.55" y="285" />
            </Array>
          </mxGeometry>
        </mxCell>
        <mxCell id="ImHuEV7vQ7CyUbTSZgIe-53" style="edgeStyle=orthogonalEdgeStyle;rounded=0;orthogonalLoop=1;jettySize=auto;html=1;exitX=0.5;exitY=1;exitDx=0;exitDy=0;entryX=0.061;entryY=-0.083;entryDx=0;entryDy=0;entryPerimeter=0;" edge="1" parent="1">
          <mxGeometry relative="1" as="geometry">
            <mxPoint x="460.05" y="275" as="sourcePoint" />
            <mxPoint x="460.05" y="312" as="targetPoint" />
          </mxGeometry>
        </mxCell>
        <mxCell id="ImHuEV7vQ7CyUbTSZgIe-54" style="edgeStyle=orthogonalEdgeStyle;rounded=0;orthogonalLoop=1;jettySize=auto;html=1;exitX=0.5;exitY=1;exitDx=0;exitDy=0;entryX=0.061;entryY=-0.083;entryDx=0;entryDy=0;entryPerimeter=0;" edge="1" parent="1">
          <mxGeometry relative="1" as="geometry">
            <mxPoint x="499.55" y="275" as="sourcePoint" />
            <mxPoint x="499.55" y="312" as="targetPoint" />
            <Array as="points">
              <mxPoint x="499.55" y="285" />
              <mxPoint x="499.55" y="285" />
            </Array>
          </mxGeometry>
        </mxCell>
        <mxCell id="ImHuEV7vQ7CyUbTSZgIe-55" style="edgeStyle=orthogonalEdgeStyle;rounded=0;orthogonalLoop=1;jettySize=auto;html=1;exitX=0.5;exitY=1;exitDx=0;exitDy=0;entryX=0.061;entryY=-0.083;entryDx=0;entryDy=0;entryPerimeter=0;" edge="1" parent="1">
          <mxGeometry relative="1" as="geometry">
            <mxPoint x="539.5500000000001" y="275" as="sourcePoint" />
            <mxPoint x="539.5500000000001" y="312" as="targetPoint" />
            <Array as="points">
              <mxPoint x="539.5500000000001" y="285" />
              <mxPoint x="539.5500000000001" y="285" />
            </Array>
          </mxGeometry>
        </mxCell>
        <mxCell id="ImHuEV7vQ7CyUbTSZgIe-56" style="edgeStyle=orthogonalEdgeStyle;rounded=0;orthogonalLoop=1;jettySize=auto;html=1;exitX=0.5;exitY=1;exitDx=0;exitDy=0;entryX=0.061;entryY=-0.083;entryDx=0;entryDy=0;entryPerimeter=0;" edge="1" parent="1">
          <mxGeometry relative="1" as="geometry">
            <mxPoint x="579.5500000000001" y="275" as="sourcePoint" />
            <mxPoint x="579.5500000000001" y="312" as="targetPoint" />
            <Array as="points">
              <mxPoint x="579.5500000000001" y="285" />
              <mxPoint x="579.5500000000001" y="285" />
            </Array>
          </mxGeometry>
        </mxCell>
        <mxCell id="ImHuEV7vQ7CyUbTSZgIe-58" style="edgeStyle=orthogonalEdgeStyle;rounded=0;orthogonalLoop=1;jettySize=auto;html=1;" edge="1" parent="1" source="ImHuEV7vQ7CyUbTSZgIe-57">
          <mxGeometry relative="1" as="geometry">
            <mxPoint x="270" y="100.00000000000006" as="targetPoint" />
          </mxGeometry>
        </mxCell>
        <mxCell id="ImHuEV7vQ7CyUbTSZgIe-57" value="Input state" style="text;html=1;align=center;verticalAlign=middle;whiteSpace=wrap;rounded=0;" vertex="1" parent="1">
          <mxGeometry x="180" y="85" width="60" height="30" as="geometry" />
        </mxCell>
        <mxCell id="ImHuEV7vQ7CyUbTSZgIe-59" style="edgeStyle=orthogonalEdgeStyle;rounded=0;orthogonalLoop=1;jettySize=auto;html=1;" edge="1" parent="1">
          <mxGeometry relative="1" as="geometry">
            <mxPoint x="270" y="420.00000000000006" as="targetPoint" />
            <mxPoint x="240" y="420" as="sourcePoint" />
          </mxGeometry>
        </mxCell>
        <mxCell id="ImHuEV7vQ7CyUbTSZgIe-61" value="" style="rounded=0;whiteSpace=wrap;html=1;" vertex="1" parent="1">
          <mxGeometry x="280" y="400" width="40" height="40" as="geometry" />
        </mxCell>
        <mxCell id="ImHuEV7vQ7CyUbTSZgIe-62" value="" style="rounded=0;whiteSpace=wrap;html=1;" vertex="1" parent="1">
          <mxGeometry x="320" y="400" width="40" height="40" as="geometry" />
        </mxCell>
        <mxCell id="ImHuEV7vQ7CyUbTSZgIe-63" value="" style="rounded=0;whiteSpace=wrap;html=1;" vertex="1" parent="1">
          <mxGeometry x="360" y="400" width="40" height="40" as="geometry" />
        </mxCell>
        <mxCell id="ImHuEV7vQ7CyUbTSZgIe-64" value="" style="rounded=0;whiteSpace=wrap;html=1;" vertex="1" parent="1">
          <mxGeometry x="400" y="400" width="40" height="40" as="geometry" />
        </mxCell>
        <mxCell id="ImHuEV7vQ7CyUbTSZgIe-65" value="" style="rounded=0;whiteSpace=wrap;html=1;" vertex="1" parent="1">
          <mxGeometry x="440" y="400" width="40" height="40" as="geometry" />
        </mxCell>
        <mxCell id="ImHuEV7vQ7CyUbTSZgIe-66" value="" style="rounded=0;whiteSpace=wrap;html=1;" vertex="1" parent="1">
          <mxGeometry x="480" y="400" width="40" height="40" as="geometry" />
        </mxCell>
        <mxCell id="ImHuEV7vQ7CyUbTSZgIe-67" value="" style="rounded=0;whiteSpace=wrap;html=1;" vertex="1" parent="1">
          <mxGeometry x="520" y="400" width="40" height="40" as="geometry" />
        </mxCell>
        <mxCell id="ImHuEV7vQ7CyUbTSZgIe-68" value="" style="rounded=0;whiteSpace=wrap;html=1;" vertex="1" parent="1">
          <mxGeometry x="560" y="400" width="40" height="40" as="geometry" />
        </mxCell>
        <mxCell id="ImHuEV7vQ7CyUbTSZgIe-70" style="edgeStyle=orthogonalEdgeStyle;rounded=0;orthogonalLoop=1;jettySize=auto;html=1;exitX=0.5;exitY=1;exitDx=0;exitDy=0;entryX=0.061;entryY=-0.083;entryDx=0;entryDy=0;entryPerimeter=0;" edge="1" parent="1">
          <mxGeometry relative="1" as="geometry">
            <mxPoint x="300.01" y="360" as="sourcePoint" />
            <mxPoint x="300.01" y="397" as="targetPoint" />
          </mxGeometry>
        </mxCell>
        <mxCell id="ImHuEV7vQ7CyUbTSZgIe-71" style="edgeStyle=orthogonalEdgeStyle;rounded=0;orthogonalLoop=1;jettySize=auto;html=1;exitX=0.5;exitY=1;exitDx=0;exitDy=0;entryX=0.061;entryY=-0.083;entryDx=0;entryDy=0;entryPerimeter=0;" edge="1" parent="1">
          <mxGeometry relative="1" as="geometry">
            <mxPoint x="339.51" y="360" as="sourcePoint" />
            <mxPoint x="339.51" y="397" as="targetPoint" />
            <Array as="points">
              <mxPoint x="339.51" y="370" />
              <mxPoint x="339.51" y="370" />
            </Array>
          </mxGeometry>
        </mxCell>
        <mxCell id="ImHuEV7vQ7CyUbTSZgIe-72" style="edgeStyle=orthogonalEdgeStyle;rounded=0;orthogonalLoop=1;jettySize=auto;html=1;exitX=0.5;exitY=1;exitDx=0;exitDy=0;entryX=0.061;entryY=-0.083;entryDx=0;entryDy=0;entryPerimeter=0;" edge="1" parent="1">
          <mxGeometry relative="1" as="geometry">
            <mxPoint x="379.51" y="360" as="sourcePoint" />
            <mxPoint x="379.51" y="397" as="targetPoint" />
            <Array as="points">
              <mxPoint x="379.51" y="370" />
              <mxPoint x="379.51" y="370" />
            </Array>
          </mxGeometry>
        </mxCell>
        <mxCell id="ImHuEV7vQ7CyUbTSZgIe-73" style="edgeStyle=orthogonalEdgeStyle;rounded=0;orthogonalLoop=1;jettySize=auto;html=1;exitX=0.5;exitY=1;exitDx=0;exitDy=0;entryX=0.061;entryY=-0.083;entryDx=0;entryDy=0;entryPerimeter=0;" edge="1" parent="1">
          <mxGeometry relative="1" as="geometry">
            <mxPoint x="419.51" y="360" as="sourcePoint" />
            <mxPoint x="419.51" y="397" as="targetPoint" />
            <Array as="points">
              <mxPoint x="419.51" y="370" />
              <mxPoint x="419.51" y="370" />
            </Array>
          </mxGeometry>
        </mxCell>
        <mxCell id="ImHuEV7vQ7CyUbTSZgIe-74" style="edgeStyle=orthogonalEdgeStyle;rounded=0;orthogonalLoop=1;jettySize=auto;html=1;exitX=0.5;exitY=1;exitDx=0;exitDy=0;entryX=0.061;entryY=-0.083;entryDx=0;entryDy=0;entryPerimeter=0;" edge="1" parent="1">
          <mxGeometry relative="1" as="geometry">
            <mxPoint x="460.01" y="360" as="sourcePoint" />
            <mxPoint x="460.01" y="397" as="targetPoint" />
          </mxGeometry>
        </mxCell>
        <mxCell id="ImHuEV7vQ7CyUbTSZgIe-75" style="edgeStyle=orthogonalEdgeStyle;rounded=0;orthogonalLoop=1;jettySize=auto;html=1;exitX=0.5;exitY=1;exitDx=0;exitDy=0;entryX=0.061;entryY=-0.083;entryDx=0;entryDy=0;entryPerimeter=0;" edge="1" parent="1">
          <mxGeometry relative="1" as="geometry">
            <mxPoint x="499.51" y="360" as="sourcePoint" />
            <mxPoint x="499.51" y="397" as="targetPoint" />
            <Array as="points">
              <mxPoint x="499.51" y="370" />
              <mxPoint x="499.51" y="370" />
            </Array>
          </mxGeometry>
        </mxCell>
        <mxCell id="ImHuEV7vQ7CyUbTSZgIe-76" style="edgeStyle=orthogonalEdgeStyle;rounded=0;orthogonalLoop=1;jettySize=auto;html=1;exitX=0.5;exitY=1;exitDx=0;exitDy=0;entryX=0.061;entryY=-0.083;entryDx=0;entryDy=0;entryPerimeter=0;" edge="1" parent="1">
          <mxGeometry relative="1" as="geometry">
            <mxPoint x="539.5100000000001" y="360" as="sourcePoint" />
            <mxPoint x="539.5100000000001" y="397" as="targetPoint" />
            <Array as="points">
              <mxPoint x="539.5100000000001" y="370" />
              <mxPoint x="539.5100000000001" y="370" />
            </Array>
          </mxGeometry>
        </mxCell>
        <mxCell id="ImHuEV7vQ7CyUbTSZgIe-77" style="edgeStyle=orthogonalEdgeStyle;rounded=0;orthogonalLoop=1;jettySize=auto;html=1;exitX=0.5;exitY=1;exitDx=0;exitDy=0;entryX=0.061;entryY=-0.083;entryDx=0;entryDy=0;entryPerimeter=0;" edge="1" parent="1">
          <mxGeometry relative="1" as="geometry">
            <mxPoint x="579.5100000000001" y="360" as="sourcePoint" />
            <mxPoint x="579.5100000000001" y="397" as="targetPoint" />
            <Array as="points">
              <mxPoint x="579.5100000000001" y="370" />
              <mxPoint x="579.5100000000001" y="370" />
            </Array>
          </mxGeometry>
        </mxCell>
        <mxCell id="a0Cm1nGrMdbv_-heAgdM-1" value="Output state" style="text;html=1;align=center;verticalAlign=middle;whiteSpace=wrap;rounded=0;" vertex="1" parent="1">
          <mxGeometry x="170" y="405" width="70" height="30" as="geometry" />
        </mxCell>
      </root>
    </mxGraphModel>
  </diagram>
  <diagram id="tmKBkUkJvPgxAfH_7Cif" name="Page-2">
    <mxGraphModel dx="921" dy="506" grid="1" gridSize="10" guides="1" tooltips="1" connect="1" arrows="1" fold="1" page="1" pageScale="1" pageWidth="850" pageHeight="1100" math="0" shadow="0">
      <root>
        <mxCell id="0" />
        <mxCell id="1" parent="0" />
        <mxCell id="rDNnc_4DUODO03-yMFTb-1" value="" style="rounded=0;whiteSpace=wrap;html=1;" vertex="1" parent="1">
          <mxGeometry x="280" y="80" width="40" height="40" as="geometry" />
        </mxCell>
        <mxCell id="rDNnc_4DUODO03-yMFTb-2" value="" style="rounded=0;whiteSpace=wrap;html=1;" vertex="1" parent="1">
          <mxGeometry x="320" y="80" width="40" height="40" as="geometry" />
        </mxCell>
        <mxCell id="rDNnc_4DUODO03-yMFTb-3" value="" style="rounded=0;whiteSpace=wrap;html=1;" vertex="1" parent="1">
          <mxGeometry x="360" y="80" width="40" height="40" as="geometry" />
        </mxCell>
        <mxCell id="rDNnc_4DUODO03-yMFTb-4" value="" style="rounded=0;whiteSpace=wrap;html=1;" vertex="1" parent="1">
          <mxGeometry x="400" y="80" width="40" height="40" as="geometry" />
        </mxCell>
        <mxCell id="rDNnc_4DUODO03-yMFTb-5" value="" style="rounded=0;whiteSpace=wrap;html=1;" vertex="1" parent="1">
          <mxGeometry x="440" y="80" width="40" height="40" as="geometry" />
        </mxCell>
        <mxCell id="rDNnc_4DUODO03-yMFTb-6" value="" style="rounded=0;whiteSpace=wrap;html=1;" vertex="1" parent="1">
          <mxGeometry x="480" y="80" width="40" height="40" as="geometry" />
        </mxCell>
        <mxCell id="rDNnc_4DUODO03-yMFTb-7" value="" style="rounded=0;whiteSpace=wrap;html=1;" vertex="1" parent="1">
          <mxGeometry x="520" y="80" width="40" height="40" as="geometry" />
        </mxCell>
        <mxCell id="rDNnc_4DUODO03-yMFTb-8" value="" style="rounded=0;whiteSpace=wrap;html=1;" vertex="1" parent="1">
          <mxGeometry x="560" y="80" width="40" height="40" as="geometry" />
        </mxCell>
        <mxCell id="rDNnc_4DUODO03-yMFTb-9" value="" style="shape=curlyBracket;whiteSpace=wrap;html=1;rounded=1;labelPosition=left;verticalLabelPosition=middle;align=right;verticalAlign=middle;rotation=90;size=0.5;" vertex="1" parent="1">
          <mxGeometry x="430" y="-95" width="20" height="315" as="geometry" />
        </mxCell>
        <mxCell id="rDNnc_4DUODO03-yMFTb-10" value="state width" style="text;html=1;align=center;verticalAlign=middle;whiteSpace=wrap;rounded=0;" vertex="1" parent="1">
          <mxGeometry x="410" y="20" width="60" height="30" as="geometry" />
        </mxCell>
        <mxCell id="rDNnc_4DUODO03-yMFTb-11" value="AddRoundConstants" style="rounded=1;whiteSpace=wrap;html=1;" vertex="1" parent="1">
          <mxGeometry x="280" y="160" width="320" height="40" as="geometry" />
        </mxCell>
        <mxCell id="rDNnc_4DUODO03-yMFTb-12" style="edgeStyle=orthogonalEdgeStyle;rounded=0;orthogonalLoop=1;jettySize=auto;html=1;exitX=0.5;exitY=1;exitDx=0;exitDy=0;entryX=0.061;entryY=-0.083;entryDx=0;entryDy=0;entryPerimeter=0;" edge="1" parent="1" source="rDNnc_4DUODO03-yMFTb-1" target="rDNnc_4DUODO03-yMFTb-11">
          <mxGeometry relative="1" as="geometry" />
        </mxCell>
        <mxCell id="rDNnc_4DUODO03-yMFTb-13" style="edgeStyle=orthogonalEdgeStyle;rounded=0;orthogonalLoop=1;jettySize=auto;html=1;exitX=0.5;exitY=1;exitDx=0;exitDy=0;entryX=0.061;entryY=-0.083;entryDx=0;entryDy=0;entryPerimeter=0;" edge="1" parent="1">
          <mxGeometry relative="1" as="geometry">
            <mxPoint x="339.5" y="120" as="sourcePoint" />
            <mxPoint x="339.5" y="157" as="targetPoint" />
            <Array as="points">
              <mxPoint x="339.5" y="130" />
              <mxPoint x="339.5" y="130" />
            </Array>
          </mxGeometry>
        </mxCell>
        <mxCell id="rDNnc_4DUODO03-yMFTb-14" style="edgeStyle=orthogonalEdgeStyle;rounded=0;orthogonalLoop=1;jettySize=auto;html=1;exitX=0.5;exitY=1;exitDx=0;exitDy=0;entryX=0.061;entryY=-0.083;entryDx=0;entryDy=0;entryPerimeter=0;" edge="1" parent="1">
          <mxGeometry relative="1" as="geometry">
            <mxPoint x="379.5" y="120" as="sourcePoint" />
            <mxPoint x="379.5" y="157" as="targetPoint" />
            <Array as="points">
              <mxPoint x="379.5" y="130" />
              <mxPoint x="379.5" y="130" />
            </Array>
          </mxGeometry>
        </mxCell>
        <mxCell id="rDNnc_4DUODO03-yMFTb-15" style="edgeStyle=orthogonalEdgeStyle;rounded=0;orthogonalLoop=1;jettySize=auto;html=1;exitX=0.5;exitY=1;exitDx=0;exitDy=0;entryX=0.061;entryY=-0.083;entryDx=0;entryDy=0;entryPerimeter=0;" edge="1" parent="1">
          <mxGeometry relative="1" as="geometry">
            <mxPoint x="419.5" y="120" as="sourcePoint" />
            <mxPoint x="419.5" y="157" as="targetPoint" />
            <Array as="points">
              <mxPoint x="419.5" y="130" />
              <mxPoint x="419.5" y="130" />
            </Array>
          </mxGeometry>
        </mxCell>
        <mxCell id="rDNnc_4DUODO03-yMFTb-16" style="edgeStyle=orthogonalEdgeStyle;rounded=0;orthogonalLoop=1;jettySize=auto;html=1;exitX=0.5;exitY=1;exitDx=0;exitDy=0;entryX=0.061;entryY=-0.083;entryDx=0;entryDy=0;entryPerimeter=0;" edge="1" parent="1">
          <mxGeometry relative="1" as="geometry">
            <mxPoint x="460" y="120" as="sourcePoint" />
            <mxPoint x="460" y="157" as="targetPoint" />
          </mxGeometry>
        </mxCell>
        <mxCell id="rDNnc_4DUODO03-yMFTb-17" style="edgeStyle=orthogonalEdgeStyle;rounded=0;orthogonalLoop=1;jettySize=auto;html=1;exitX=0.5;exitY=1;exitDx=0;exitDy=0;entryX=0.061;entryY=-0.083;entryDx=0;entryDy=0;entryPerimeter=0;" edge="1" parent="1">
          <mxGeometry relative="1" as="geometry">
            <mxPoint x="499.5" y="120" as="sourcePoint" />
            <mxPoint x="499.5" y="157" as="targetPoint" />
            <Array as="points">
              <mxPoint x="499.5" y="130" />
              <mxPoint x="499.5" y="130" />
            </Array>
          </mxGeometry>
        </mxCell>
        <mxCell id="rDNnc_4DUODO03-yMFTb-18" style="edgeStyle=orthogonalEdgeStyle;rounded=0;orthogonalLoop=1;jettySize=auto;html=1;exitX=0.5;exitY=1;exitDx=0;exitDy=0;entryX=0.061;entryY=-0.083;entryDx=0;entryDy=0;entryPerimeter=0;" edge="1" parent="1">
          <mxGeometry relative="1" as="geometry">
            <mxPoint x="539.5" y="120" as="sourcePoint" />
            <mxPoint x="539.5" y="157" as="targetPoint" />
            <Array as="points">
              <mxPoint x="539.5" y="130" />
              <mxPoint x="539.5" y="130" />
            </Array>
          </mxGeometry>
        </mxCell>
        <mxCell id="rDNnc_4DUODO03-yMFTb-19" style="edgeStyle=orthogonalEdgeStyle;rounded=0;orthogonalLoop=1;jettySize=auto;html=1;exitX=0.5;exitY=1;exitDx=0;exitDy=0;entryX=0.061;entryY=-0.083;entryDx=0;entryDy=0;entryPerimeter=0;" edge="1" parent="1">
          <mxGeometry relative="1" as="geometry">
            <mxPoint x="579.5" y="120" as="sourcePoint" />
            <mxPoint x="579.5" y="157" as="targetPoint" />
            <Array as="points">
              <mxPoint x="579.5" y="130" />
              <mxPoint x="579.5" y="130" />
            </Array>
          </mxGeometry>
        </mxCell>
        <mxCell id="rDNnc_4DUODO03-yMFTb-22" style="edgeStyle=orthogonalEdgeStyle;rounded=0;orthogonalLoop=1;jettySize=auto;html=1;exitX=0.5;exitY=1;exitDx=0;exitDy=0;" edge="1" parent="1">
          <mxGeometry relative="1" as="geometry">
            <mxPoint x="300.08" y="200" as="sourcePoint" />
            <mxPoint x="300" y="310" as="targetPoint" />
          </mxGeometry>
        </mxCell>
        <mxCell id="rDNnc_4DUODO03-yMFTb-24" style="edgeStyle=orthogonalEdgeStyle;rounded=0;orthogonalLoop=1;jettySize=auto;html=1;exitX=0.5;exitY=1;exitDx=0;exitDy=0;entryX=0.061;entryY=-0.083;entryDx=0;entryDy=0;entryPerimeter=0;" edge="1" parent="1">
          <mxGeometry relative="1" as="geometry">
            <mxPoint x="379.58" y="200" as="sourcePoint" />
            <mxPoint x="379.58" y="237" as="targetPoint" />
            <Array as="points">
              <mxPoint x="379.58" y="210" />
              <mxPoint x="379.58" y="210" />
            </Array>
          </mxGeometry>
        </mxCell>
        <mxCell id="rDNnc_4DUODO03-yMFTb-30" value="S" style="rounded=0;whiteSpace=wrap;html=1;" vertex="1" parent="1">
          <mxGeometry x="365" y="245" width="30" height="30" as="geometry" />
        </mxCell>
        <mxCell id="rDNnc_4DUODO03-yMFTb-36" value="MixLayer" style="rounded=1;whiteSpace=wrap;html=1;" vertex="1" parent="1">
          <mxGeometry x="280" y="320" width="320" height="40" as="geometry" />
        </mxCell>
        <mxCell id="rDNnc_4DUODO03-yMFTb-39" style="edgeStyle=orthogonalEdgeStyle;rounded=0;orthogonalLoop=1;jettySize=auto;html=1;exitX=0.5;exitY=1;exitDx=0;exitDy=0;entryX=0.061;entryY=-0.083;entryDx=0;entryDy=0;entryPerimeter=0;" edge="1" parent="1">
          <mxGeometry relative="1" as="geometry">
            <mxPoint x="379.55" y="275" as="sourcePoint" />
            <mxPoint x="379.55" y="312" as="targetPoint" />
            <Array as="points">
              <mxPoint x="379.55" y="285" />
              <mxPoint x="379.55" y="285" />
            </Array>
          </mxGeometry>
        </mxCell>
        <mxCell id="rDNnc_4DUODO03-yMFTb-45" style="edgeStyle=orthogonalEdgeStyle;rounded=0;orthogonalLoop=1;jettySize=auto;html=1;" edge="1" parent="1" source="rDNnc_4DUODO03-yMFTb-46">
          <mxGeometry relative="1" as="geometry">
            <mxPoint x="270" y="100.00000000000006" as="targetPoint" />
          </mxGeometry>
        </mxCell>
        <mxCell id="rDNnc_4DUODO03-yMFTb-46" value="Input state" style="text;html=1;align=center;verticalAlign=middle;whiteSpace=wrap;rounded=0;" vertex="1" parent="1">
          <mxGeometry x="180" y="85" width="60" height="30" as="geometry" />
        </mxCell>
        <mxCell id="rDNnc_4DUODO03-yMFTb-47" style="edgeStyle=orthogonalEdgeStyle;rounded=0;orthogonalLoop=1;jettySize=auto;html=1;" edge="1" parent="1" source="rDNnc_4DUODO03-yMFTb-48">
          <mxGeometry relative="1" as="geometry">
            <mxPoint x="270" y="420.00000000000006" as="targetPoint" />
          </mxGeometry>
        </mxCell>
        <mxCell id="rDNnc_4DUODO03-yMFTb-48" value="Output state" style="text;html=1;align=center;verticalAlign=middle;whiteSpace=wrap;rounded=0;" vertex="1" parent="1">
          <mxGeometry x="170" y="405" width="70" height="30" as="geometry" />
        </mxCell>
        <mxCell id="rDNnc_4DUODO03-yMFTb-49" value="" style="rounded=0;whiteSpace=wrap;html=1;" vertex="1" parent="1">
          <mxGeometry x="280" y="400" width="40" height="40" as="geometry" />
        </mxCell>
        <mxCell id="rDNnc_4DUODO03-yMFTb-50" value="" style="rounded=0;whiteSpace=wrap;html=1;" vertex="1" parent="1">
          <mxGeometry x="320" y="400" width="40" height="40" as="geometry" />
        </mxCell>
        <mxCell id="rDNnc_4DUODO03-yMFTb-51" value="" style="rounded=0;whiteSpace=wrap;html=1;" vertex="1" parent="1">
          <mxGeometry x="360" y="400" width="40" height="40" as="geometry" />
        </mxCell>
        <mxCell id="rDNnc_4DUODO03-yMFTb-52" value="" style="rounded=0;whiteSpace=wrap;html=1;" vertex="1" parent="1">
          <mxGeometry x="400" y="400" width="40" height="40" as="geometry" />
        </mxCell>
        <mxCell id="rDNnc_4DUODO03-yMFTb-53" value="" style="rounded=0;whiteSpace=wrap;html=1;" vertex="1" parent="1">
          <mxGeometry x="440" y="400" width="40" height="40" as="geometry" />
        </mxCell>
        <mxCell id="rDNnc_4DUODO03-yMFTb-54" value="" style="rounded=0;whiteSpace=wrap;html=1;" vertex="1" parent="1">
          <mxGeometry x="480" y="400" width="40" height="40" as="geometry" />
        </mxCell>
        <mxCell id="rDNnc_4DUODO03-yMFTb-55" value="" style="rounded=0;whiteSpace=wrap;html=1;" vertex="1" parent="1">
          <mxGeometry x="520" y="400" width="40" height="40" as="geometry" />
        </mxCell>
        <mxCell id="rDNnc_4DUODO03-yMFTb-56" value="" style="rounded=0;whiteSpace=wrap;html=1;" vertex="1" parent="1">
          <mxGeometry x="560" y="400" width="40" height="40" as="geometry" />
        </mxCell>
        <mxCell id="rDNnc_4DUODO03-yMFTb-57" style="edgeStyle=orthogonalEdgeStyle;rounded=0;orthogonalLoop=1;jettySize=auto;html=1;exitX=0.5;exitY=1;exitDx=0;exitDy=0;entryX=0.061;entryY=-0.083;entryDx=0;entryDy=0;entryPerimeter=0;" edge="1" parent="1">
          <mxGeometry relative="1" as="geometry">
            <mxPoint x="300.01" y="360" as="sourcePoint" />
            <mxPoint x="300.01" y="397" as="targetPoint" />
          </mxGeometry>
        </mxCell>
        <mxCell id="rDNnc_4DUODO03-yMFTb-58" style="edgeStyle=orthogonalEdgeStyle;rounded=0;orthogonalLoop=1;jettySize=auto;html=1;exitX=0.5;exitY=1;exitDx=0;exitDy=0;entryX=0.061;entryY=-0.083;entryDx=0;entryDy=0;entryPerimeter=0;" edge="1" parent="1">
          <mxGeometry relative="1" as="geometry">
            <mxPoint x="339.51" y="360" as="sourcePoint" />
            <mxPoint x="339.51" y="397" as="targetPoint" />
            <Array as="points">
              <mxPoint x="339.51" y="370" />
              <mxPoint x="339.51" y="370" />
            </Array>
          </mxGeometry>
        </mxCell>
        <mxCell id="rDNnc_4DUODO03-yMFTb-59" style="edgeStyle=orthogonalEdgeStyle;rounded=0;orthogonalLoop=1;jettySize=auto;html=1;exitX=0.5;exitY=1;exitDx=0;exitDy=0;entryX=0.061;entryY=-0.083;entryDx=0;entryDy=0;entryPerimeter=0;" edge="1" parent="1">
          <mxGeometry relative="1" as="geometry">
            <mxPoint x="379.51" y="360" as="sourcePoint" />
            <mxPoint x="379.51" y="397" as="targetPoint" />
            <Array as="points">
              <mxPoint x="379.51" y="370" />
              <mxPoint x="379.51" y="370" />
            </Array>
          </mxGeometry>
        </mxCell>
        <mxCell id="rDNnc_4DUODO03-yMFTb-60" style="edgeStyle=orthogonalEdgeStyle;rounded=0;orthogonalLoop=1;jettySize=auto;html=1;exitX=0.5;exitY=1;exitDx=0;exitDy=0;entryX=0.061;entryY=-0.083;entryDx=0;entryDy=0;entryPerimeter=0;" edge="1" parent="1">
          <mxGeometry relative="1" as="geometry">
            <mxPoint x="419.51" y="360" as="sourcePoint" />
            <mxPoint x="419.51" y="397" as="targetPoint" />
            <Array as="points">
              <mxPoint x="419.51" y="370" />
              <mxPoint x="419.51" y="370" />
            </Array>
          </mxGeometry>
        </mxCell>
        <mxCell id="rDNnc_4DUODO03-yMFTb-61" style="edgeStyle=orthogonalEdgeStyle;rounded=0;orthogonalLoop=1;jettySize=auto;html=1;exitX=0.5;exitY=1;exitDx=0;exitDy=0;entryX=0.061;entryY=-0.083;entryDx=0;entryDy=0;entryPerimeter=0;" edge="1" parent="1">
          <mxGeometry relative="1" as="geometry">
            <mxPoint x="460.01" y="360" as="sourcePoint" />
            <mxPoint x="460.01" y="397" as="targetPoint" />
          </mxGeometry>
        </mxCell>
        <mxCell id="rDNnc_4DUODO03-yMFTb-62" style="edgeStyle=orthogonalEdgeStyle;rounded=0;orthogonalLoop=1;jettySize=auto;html=1;exitX=0.5;exitY=1;exitDx=0;exitDy=0;entryX=0.061;entryY=-0.083;entryDx=0;entryDy=0;entryPerimeter=0;" edge="1" parent="1">
          <mxGeometry relative="1" as="geometry">
            <mxPoint x="499.51" y="360" as="sourcePoint" />
            <mxPoint x="499.51" y="397" as="targetPoint" />
            <Array as="points">
              <mxPoint x="499.51" y="370" />
              <mxPoint x="499.51" y="370" />
            </Array>
          </mxGeometry>
        </mxCell>
        <mxCell id="rDNnc_4DUODO03-yMFTb-63" style="edgeStyle=orthogonalEdgeStyle;rounded=0;orthogonalLoop=1;jettySize=auto;html=1;exitX=0.5;exitY=1;exitDx=0;exitDy=0;entryX=0.061;entryY=-0.083;entryDx=0;entryDy=0;entryPerimeter=0;" edge="1" parent="1">
          <mxGeometry relative="1" as="geometry">
            <mxPoint x="539.5100000000001" y="360" as="sourcePoint" />
            <mxPoint x="539.5100000000001" y="397" as="targetPoint" />
            <Array as="points">
              <mxPoint x="539.5100000000001" y="370" />
              <mxPoint x="539.5100000000001" y="370" />
            </Array>
          </mxGeometry>
        </mxCell>
        <mxCell id="rDNnc_4DUODO03-yMFTb-64" style="edgeStyle=orthogonalEdgeStyle;rounded=0;orthogonalLoop=1;jettySize=auto;html=1;exitX=0.5;exitY=1;exitDx=0;exitDy=0;entryX=0.061;entryY=-0.083;entryDx=0;entryDy=0;entryPerimeter=0;" edge="1" parent="1">
          <mxGeometry relative="1" as="geometry">
            <mxPoint x="579.5100000000001" y="360" as="sourcePoint" />
            <mxPoint x="579.5100000000001" y="397" as="targetPoint" />
            <Array as="points">
              <mxPoint x="579.5100000000001" y="370" />
              <mxPoint x="579.5100000000001" y="370" />
            </Array>
          </mxGeometry>
        </mxCell>
        <mxCell id="rDNnc_4DUODO03-yMFTb-65" style="edgeStyle=orthogonalEdgeStyle;rounded=0;orthogonalLoop=1;jettySize=auto;html=1;exitX=0.5;exitY=1;exitDx=0;exitDy=0;" edge="1" parent="1">
          <mxGeometry relative="1" as="geometry">
            <mxPoint x="339.78" y="200" as="sourcePoint" />
            <mxPoint x="339.7" y="310" as="targetPoint" />
          </mxGeometry>
        </mxCell>
        <mxCell id="rDNnc_4DUODO03-yMFTb-66" style="edgeStyle=orthogonalEdgeStyle;rounded=0;orthogonalLoop=1;jettySize=auto;html=1;exitX=0.5;exitY=1;exitDx=0;exitDy=0;" edge="1" parent="1">
          <mxGeometry relative="1" as="geometry">
            <mxPoint x="419.77" y="200" as="sourcePoint" />
            <mxPoint x="419.69" y="310" as="targetPoint" />
          </mxGeometry>
        </mxCell>
        <mxCell id="rDNnc_4DUODO03-yMFTb-67" style="edgeStyle=orthogonalEdgeStyle;rounded=0;orthogonalLoop=1;jettySize=auto;html=1;exitX=0.5;exitY=1;exitDx=0;exitDy=0;" edge="1" parent="1">
          <mxGeometry relative="1" as="geometry">
            <mxPoint x="459.77" y="200" as="sourcePoint" />
            <mxPoint x="459.69" y="310" as="targetPoint" />
          </mxGeometry>
        </mxCell>
        <mxCell id="rDNnc_4DUODO03-yMFTb-68" style="edgeStyle=orthogonalEdgeStyle;rounded=0;orthogonalLoop=1;jettySize=auto;html=1;exitX=0.5;exitY=1;exitDx=0;exitDy=0;" edge="1" parent="1">
          <mxGeometry relative="1" as="geometry">
            <mxPoint x="499.77" y="200" as="sourcePoint" />
            <mxPoint x="499.69" y="310" as="targetPoint" />
          </mxGeometry>
        </mxCell>
        <mxCell id="rDNnc_4DUODO03-yMFTb-69" style="edgeStyle=orthogonalEdgeStyle;rounded=0;orthogonalLoop=1;jettySize=auto;html=1;exitX=0.5;exitY=1;exitDx=0;exitDy=0;" edge="1" parent="1">
          <mxGeometry relative="1" as="geometry">
            <mxPoint x="539.77" y="200" as="sourcePoint" />
            <mxPoint x="539.69" y="310" as="targetPoint" />
          </mxGeometry>
        </mxCell>
        <mxCell id="rDNnc_4DUODO03-yMFTb-70" style="edgeStyle=orthogonalEdgeStyle;rounded=0;orthogonalLoop=1;jettySize=auto;html=1;exitX=0.5;exitY=1;exitDx=0;exitDy=0;" edge="1" parent="1">
          <mxGeometry relative="1" as="geometry">
            <mxPoint x="579.77" y="200" as="sourcePoint" />
            <mxPoint x="579.69" y="310" as="targetPoint" />
          </mxGeometry>
        </mxCell>
      </root>
    </mxGraphModel>
  </diagram>
  <diagram id="_TRG2MPAf1TBBfnBdTBk" name="Page-3">
    <mxGraphModel dx="783" dy="430" grid="1" gridSize="10" guides="1" tooltips="1" connect="1" arrows="1" fold="1" page="1" pageScale="1" pageWidth="850" pageHeight="1100" math="0" shadow="0">
      <root>
        <mxCell id="0" />
        <mxCell id="1" parent="0" />
        <mxCell id="UUKTEF4YkFD5XSZwIISK-1" value="" style="rounded=0;whiteSpace=wrap;html=1;" vertex="1" parent="1">
          <mxGeometry x="280" y="80" width="40" height="40" as="geometry" />
        </mxCell>
        <mxCell id="UUKTEF4YkFD5XSZwIISK-2" value="" style="rounded=0;whiteSpace=wrap;html=1;" vertex="1" parent="1">
          <mxGeometry x="320" y="80" width="40" height="40" as="geometry" />
        </mxCell>
        <mxCell id="UUKTEF4YkFD5XSZwIISK-3" value="" style="rounded=0;whiteSpace=wrap;html=1;" vertex="1" parent="1">
          <mxGeometry x="360" y="80" width="40" height="40" as="geometry" />
        </mxCell>
        <mxCell id="UUKTEF4YkFD5XSZwIISK-4" value="" style="rounded=0;whiteSpace=wrap;html=1;" vertex="1" parent="1">
          <mxGeometry x="400" y="80" width="40" height="40" as="geometry" />
        </mxCell>
        <mxCell id="UUKTEF4YkFD5XSZwIISK-5" value="" style="rounded=0;whiteSpace=wrap;html=1;" vertex="1" parent="1">
          <mxGeometry x="440" y="80" width="40" height="40" as="geometry" />
        </mxCell>
        <mxCell id="UUKTEF4YkFD5XSZwIISK-6" value="" style="rounded=0;whiteSpace=wrap;html=1;" vertex="1" parent="1">
          <mxGeometry x="480" y="80" width="40" height="40" as="geometry" />
        </mxCell>
        <mxCell id="UUKTEF4YkFD5XSZwIISK-7" value="" style="rounded=0;whiteSpace=wrap;html=1;" vertex="1" parent="1">
          <mxGeometry x="520" y="80" width="40" height="40" as="geometry" />
        </mxCell>
        <mxCell id="UUKTEF4YkFD5XSZwIISK-8" value="" style="rounded=0;whiteSpace=wrap;html=1;" vertex="1" parent="1">
          <mxGeometry x="560" y="80" width="40" height="40" as="geometry" />
        </mxCell>
        <mxCell id="UUKTEF4YkFD5XSZwIISK-11" style="edgeStyle=orthogonalEdgeStyle;rounded=0;orthogonalLoop=1;jettySize=auto;html=1;exitX=0.5;exitY=1;exitDx=0;exitDy=0;entryX=0.061;entryY=-0.083;entryDx=0;entryDy=0;entryPerimeter=0;" edge="1" parent="1" source="UUKTEF4YkFD5XSZwIISK-1">
          <mxGeometry relative="1" as="geometry">
            <mxPoint x="299.52" y="156.67999999999995" as="targetPoint" />
          </mxGeometry>
        </mxCell>
        <mxCell id="UUKTEF4YkFD5XSZwIISK-12" style="edgeStyle=orthogonalEdgeStyle;rounded=0;orthogonalLoop=1;jettySize=auto;html=1;exitX=0.5;exitY=1;exitDx=0;exitDy=0;entryX=0.061;entryY=-0.083;entryDx=0;entryDy=0;entryPerimeter=0;" edge="1" parent="1">
          <mxGeometry relative="1" as="geometry">
            <mxPoint x="339.5" y="120" as="sourcePoint" />
            <mxPoint x="339.5" y="157" as="targetPoint" />
            <Array as="points">
              <mxPoint x="339.5" y="130" />
              <mxPoint x="339.5" y="130" />
            </Array>
          </mxGeometry>
        </mxCell>
        <mxCell id="UUKTEF4YkFD5XSZwIISK-13" style="edgeStyle=orthogonalEdgeStyle;rounded=0;orthogonalLoop=1;jettySize=auto;html=1;exitX=0.5;exitY=1;exitDx=0;exitDy=0;entryX=0.061;entryY=-0.083;entryDx=0;entryDy=0;entryPerimeter=0;" edge="1" parent="1">
          <mxGeometry relative="1" as="geometry">
            <mxPoint x="379.5" y="120" as="sourcePoint" />
            <mxPoint x="379.5" y="157" as="targetPoint" />
            <Array as="points">
              <mxPoint x="379.5" y="130" />
              <mxPoint x="379.5" y="130" />
            </Array>
          </mxGeometry>
        </mxCell>
        <mxCell id="UUKTEF4YkFD5XSZwIISK-14" style="edgeStyle=orthogonalEdgeStyle;rounded=0;orthogonalLoop=1;jettySize=auto;html=1;exitX=0.5;exitY=1;exitDx=0;exitDy=0;entryX=0.061;entryY=-0.083;entryDx=0;entryDy=0;entryPerimeter=0;" edge="1" parent="1">
          <mxGeometry relative="1" as="geometry">
            <mxPoint x="419.5" y="120" as="sourcePoint" />
            <mxPoint x="419.5" y="157" as="targetPoint" />
            <Array as="points">
              <mxPoint x="419.5" y="130" />
              <mxPoint x="419.5" y="130" />
            </Array>
          </mxGeometry>
        </mxCell>
        <mxCell id="UUKTEF4YkFD5XSZwIISK-15" style="edgeStyle=orthogonalEdgeStyle;rounded=0;orthogonalLoop=1;jettySize=auto;html=1;exitX=0.5;exitY=1;exitDx=0;exitDy=0;entryX=0.061;entryY=-0.083;entryDx=0;entryDy=0;entryPerimeter=0;" edge="1" parent="1">
          <mxGeometry relative="1" as="geometry">
            <mxPoint x="460" y="120" as="sourcePoint" />
            <mxPoint x="460" y="157" as="targetPoint" />
          </mxGeometry>
        </mxCell>
        <mxCell id="UUKTEF4YkFD5XSZwIISK-16" style="edgeStyle=orthogonalEdgeStyle;rounded=0;orthogonalLoop=1;jettySize=auto;html=1;exitX=0.5;exitY=1;exitDx=0;exitDy=0;entryX=0.061;entryY=-0.083;entryDx=0;entryDy=0;entryPerimeter=0;" edge="1" parent="1">
          <mxGeometry relative="1" as="geometry">
            <mxPoint x="499.5" y="120" as="sourcePoint" />
            <mxPoint x="499.5" y="157" as="targetPoint" />
            <Array as="points">
              <mxPoint x="499.5" y="130" />
              <mxPoint x="499.5" y="130" />
            </Array>
          </mxGeometry>
        </mxCell>
        <mxCell id="UUKTEF4YkFD5XSZwIISK-17" style="edgeStyle=orthogonalEdgeStyle;rounded=0;orthogonalLoop=1;jettySize=auto;html=1;exitX=0.5;exitY=1;exitDx=0;exitDy=0;entryX=0.061;entryY=-0.083;entryDx=0;entryDy=0;entryPerimeter=0;" edge="1" parent="1">
          <mxGeometry relative="1" as="geometry">
            <mxPoint x="539.5" y="120" as="sourcePoint" />
            <mxPoint x="539.5" y="157" as="targetPoint" />
            <Array as="points">
              <mxPoint x="539.5" y="130" />
              <mxPoint x="539.5" y="130" />
            </Array>
          </mxGeometry>
        </mxCell>
        <mxCell id="UUKTEF4YkFD5XSZwIISK-18" style="edgeStyle=orthogonalEdgeStyle;rounded=0;orthogonalLoop=1;jettySize=auto;html=1;exitX=0.5;exitY=1;exitDx=0;exitDy=0;entryX=0.061;entryY=-0.083;entryDx=0;entryDy=0;entryPerimeter=0;" edge="1" parent="1">
          <mxGeometry relative="1" as="geometry">
            <mxPoint x="579.5" y="120" as="sourcePoint" />
            <mxPoint x="579.5" y="157" as="targetPoint" />
            <Array as="points">
              <mxPoint x="579.5" y="130" />
              <mxPoint x="579.5" y="130" />
            </Array>
          </mxGeometry>
        </mxCell>
        <mxCell id="UUKTEF4YkFD5XSZwIISK-22" value="n&lt;sub&gt;f&lt;/sub&gt;&amp;nbsp; Full Rounds" style="rounded=1;whiteSpace=wrap;html=1;" vertex="1" parent="1">
          <mxGeometry x="280" y="320" width="320" height="40" as="geometry" />
        </mxCell>
        <mxCell id="UUKTEF4YkFD5XSZwIISK-24" style="edgeStyle=orthogonalEdgeStyle;rounded=0;orthogonalLoop=1;jettySize=auto;html=1;" edge="1" parent="1" source="UUKTEF4YkFD5XSZwIISK-25">
          <mxGeometry relative="1" as="geometry">
            <mxPoint x="270" y="100.00000000000006" as="targetPoint" />
          </mxGeometry>
        </mxCell>
        <mxCell id="UUKTEF4YkFD5XSZwIISK-25" value="Input state" style="text;html=1;align=center;verticalAlign=middle;whiteSpace=wrap;rounded=0;" vertex="1" parent="1">
          <mxGeometry x="180" y="85" width="60" height="30" as="geometry" />
        </mxCell>
        <mxCell id="UUKTEF4YkFD5XSZwIISK-26" style="edgeStyle=orthogonalEdgeStyle;rounded=0;orthogonalLoop=1;jettySize=auto;html=1;" edge="1" parent="1" source="UUKTEF4YkFD5XSZwIISK-27">
          <mxGeometry relative="1" as="geometry">
            <mxPoint x="270" y="420.00000000000006" as="targetPoint" />
          </mxGeometry>
        </mxCell>
        <mxCell id="UUKTEF4YkFD5XSZwIISK-27" value="Output state" style="text;html=1;align=center;verticalAlign=middle;whiteSpace=wrap;rounded=0;" vertex="1" parent="1">
          <mxGeometry x="170" y="405" width="70" height="30" as="geometry" />
        </mxCell>
        <mxCell id="UUKTEF4YkFD5XSZwIISK-28" value="" style="rounded=0;whiteSpace=wrap;html=1;" vertex="1" parent="1">
          <mxGeometry x="280" y="400" width="40" height="40" as="geometry" />
        </mxCell>
        <mxCell id="UUKTEF4YkFD5XSZwIISK-29" value="" style="rounded=0;whiteSpace=wrap;html=1;" vertex="1" parent="1">
          <mxGeometry x="320" y="400" width="40" height="40" as="geometry" />
        </mxCell>
        <mxCell id="UUKTEF4YkFD5XSZwIISK-30" value="" style="rounded=0;whiteSpace=wrap;html=1;" vertex="1" parent="1">
          <mxGeometry x="360" y="400" width="40" height="40" as="geometry" />
        </mxCell>
        <mxCell id="UUKTEF4YkFD5XSZwIISK-31" value="" style="rounded=0;whiteSpace=wrap;html=1;" vertex="1" parent="1">
          <mxGeometry x="400" y="400" width="40" height="40" as="geometry" />
        </mxCell>
        <mxCell id="UUKTEF4YkFD5XSZwIISK-32" value="" style="rounded=0;whiteSpace=wrap;html=1;" vertex="1" parent="1">
          <mxGeometry x="440" y="400" width="40" height="40" as="geometry" />
        </mxCell>
        <mxCell id="UUKTEF4YkFD5XSZwIISK-33" value="" style="rounded=0;whiteSpace=wrap;html=1;" vertex="1" parent="1">
          <mxGeometry x="480" y="400" width="40" height="40" as="geometry" />
        </mxCell>
        <mxCell id="UUKTEF4YkFD5XSZwIISK-34" value="" style="rounded=0;whiteSpace=wrap;html=1;" vertex="1" parent="1">
          <mxGeometry x="520" y="400" width="40" height="40" as="geometry" />
        </mxCell>
        <mxCell id="UUKTEF4YkFD5XSZwIISK-35" value="" style="rounded=0;whiteSpace=wrap;html=1;" vertex="1" parent="1">
          <mxGeometry x="560" y="400" width="40" height="40" as="geometry" />
        </mxCell>
        <mxCell id="UUKTEF4YkFD5XSZwIISK-36" style="edgeStyle=orthogonalEdgeStyle;rounded=0;orthogonalLoop=1;jettySize=auto;html=1;exitX=0.5;exitY=1;exitDx=0;exitDy=0;entryX=0.061;entryY=-0.083;entryDx=0;entryDy=0;entryPerimeter=0;" edge="1" parent="1">
          <mxGeometry relative="1" as="geometry">
            <mxPoint x="300.01" y="360" as="sourcePoint" />
            <mxPoint x="300.01" y="397" as="targetPoint" />
          </mxGeometry>
        </mxCell>
        <mxCell id="UUKTEF4YkFD5XSZwIISK-37" style="edgeStyle=orthogonalEdgeStyle;rounded=0;orthogonalLoop=1;jettySize=auto;html=1;exitX=0.5;exitY=1;exitDx=0;exitDy=0;entryX=0.061;entryY=-0.083;entryDx=0;entryDy=0;entryPerimeter=0;" edge="1" parent="1">
          <mxGeometry relative="1" as="geometry">
            <mxPoint x="339.51" y="360" as="sourcePoint" />
            <mxPoint x="339.51" y="397" as="targetPoint" />
            <Array as="points">
              <mxPoint x="339.51" y="370" />
              <mxPoint x="339.51" y="370" />
            </Array>
          </mxGeometry>
        </mxCell>
        <mxCell id="UUKTEF4YkFD5XSZwIISK-38" style="edgeStyle=orthogonalEdgeStyle;rounded=0;orthogonalLoop=1;jettySize=auto;html=1;exitX=0.5;exitY=1;exitDx=0;exitDy=0;entryX=0.061;entryY=-0.083;entryDx=0;entryDy=0;entryPerimeter=0;" edge="1" parent="1">
          <mxGeometry relative="1" as="geometry">
            <mxPoint x="379.51" y="360" as="sourcePoint" />
            <mxPoint x="379.51" y="397" as="targetPoint" />
            <Array as="points">
              <mxPoint x="379.51" y="370" />
              <mxPoint x="379.51" y="370" />
            </Array>
          </mxGeometry>
        </mxCell>
        <mxCell id="UUKTEF4YkFD5XSZwIISK-39" style="edgeStyle=orthogonalEdgeStyle;rounded=0;orthogonalLoop=1;jettySize=auto;html=1;exitX=0.5;exitY=1;exitDx=0;exitDy=0;entryX=0.061;entryY=-0.083;entryDx=0;entryDy=0;entryPerimeter=0;" edge="1" parent="1">
          <mxGeometry relative="1" as="geometry">
            <mxPoint x="419.51" y="360" as="sourcePoint" />
            <mxPoint x="419.51" y="397" as="targetPoint" />
            <Array as="points">
              <mxPoint x="419.51" y="370" />
              <mxPoint x="419.51" y="370" />
            </Array>
          </mxGeometry>
        </mxCell>
        <mxCell id="UUKTEF4YkFD5XSZwIISK-40" style="edgeStyle=orthogonalEdgeStyle;rounded=0;orthogonalLoop=1;jettySize=auto;html=1;exitX=0.5;exitY=1;exitDx=0;exitDy=0;entryX=0.061;entryY=-0.083;entryDx=0;entryDy=0;entryPerimeter=0;" edge="1" parent="1">
          <mxGeometry relative="1" as="geometry">
            <mxPoint x="460.01" y="360" as="sourcePoint" />
            <mxPoint x="460.01" y="397" as="targetPoint" />
          </mxGeometry>
        </mxCell>
        <mxCell id="UUKTEF4YkFD5XSZwIISK-41" style="edgeStyle=orthogonalEdgeStyle;rounded=0;orthogonalLoop=1;jettySize=auto;html=1;exitX=0.5;exitY=1;exitDx=0;exitDy=0;entryX=0.061;entryY=-0.083;entryDx=0;entryDy=0;entryPerimeter=0;" edge="1" parent="1">
          <mxGeometry relative="1" as="geometry">
            <mxPoint x="499.51" y="360" as="sourcePoint" />
            <mxPoint x="499.51" y="397" as="targetPoint" />
            <Array as="points">
              <mxPoint x="499.51" y="370" />
              <mxPoint x="499.51" y="370" />
            </Array>
          </mxGeometry>
        </mxCell>
        <mxCell id="UUKTEF4YkFD5XSZwIISK-42" style="edgeStyle=orthogonalEdgeStyle;rounded=0;orthogonalLoop=1;jettySize=auto;html=1;exitX=0.5;exitY=1;exitDx=0;exitDy=0;entryX=0.061;entryY=-0.083;entryDx=0;entryDy=0;entryPerimeter=0;" edge="1" parent="1">
          <mxGeometry relative="1" as="geometry">
            <mxPoint x="539.5100000000001" y="360" as="sourcePoint" />
            <mxPoint x="539.5100000000001" y="397" as="targetPoint" />
            <Array as="points">
              <mxPoint x="539.5100000000001" y="370" />
              <mxPoint x="539.5100000000001" y="370" />
            </Array>
          </mxGeometry>
        </mxCell>
        <mxCell id="UUKTEF4YkFD5XSZwIISK-43" style="edgeStyle=orthogonalEdgeStyle;rounded=0;orthogonalLoop=1;jettySize=auto;html=1;exitX=0.5;exitY=1;exitDx=0;exitDy=0;entryX=0.061;entryY=-0.083;entryDx=0;entryDy=0;entryPerimeter=0;" edge="1" parent="1">
          <mxGeometry relative="1" as="geometry">
            <mxPoint x="579.5100000000001" y="360" as="sourcePoint" />
            <mxPoint x="579.5100000000001" y="397" as="targetPoint" />
            <Array as="points">
              <mxPoint x="579.5100000000001" y="370" />
              <mxPoint x="579.5100000000001" y="370" />
            </Array>
          </mxGeometry>
        </mxCell>
        <mxCell id="iPQso0IQ2j6cqO8IhBqE-1" value="n&lt;sub&gt;f&lt;/sub&gt;&amp;nbsp; Full Rounds" style="rounded=1;whiteSpace=wrap;html=1;" vertex="1" parent="1">
          <mxGeometry x="280" y="160" width="320" height="40" as="geometry" />
        </mxCell>
        <mxCell id="iPQso0IQ2j6cqO8IhBqE-2" style="edgeStyle=orthogonalEdgeStyle;rounded=0;orthogonalLoop=1;jettySize=auto;html=1;exitX=0.5;exitY=1;exitDx=0;exitDy=0;entryX=0.061;entryY=-0.083;entryDx=0;entryDy=0;entryPerimeter=0;" edge="1" parent="1">
          <mxGeometry relative="1" as="geometry">
            <mxPoint x="300.08" y="200" as="sourcePoint" />
            <mxPoint x="300.08" y="237" as="targetPoint" />
          </mxGeometry>
        </mxCell>
        <mxCell id="iPQso0IQ2j6cqO8IhBqE-3" style="edgeStyle=orthogonalEdgeStyle;rounded=0;orthogonalLoop=1;jettySize=auto;html=1;exitX=0.5;exitY=1;exitDx=0;exitDy=0;entryX=0.061;entryY=-0.083;entryDx=0;entryDy=0;entryPerimeter=0;" edge="1" parent="1">
          <mxGeometry relative="1" as="geometry">
            <mxPoint x="339.58" y="200" as="sourcePoint" />
            <mxPoint x="339.58" y="237" as="targetPoint" />
            <Array as="points">
              <mxPoint x="339.58" y="210" />
              <mxPoint x="339.58" y="210" />
            </Array>
          </mxGeometry>
        </mxCell>
        <mxCell id="iPQso0IQ2j6cqO8IhBqE-4" style="edgeStyle=orthogonalEdgeStyle;rounded=0;orthogonalLoop=1;jettySize=auto;html=1;exitX=0.5;exitY=1;exitDx=0;exitDy=0;entryX=0.061;entryY=-0.083;entryDx=0;entryDy=0;entryPerimeter=0;" edge="1" parent="1">
          <mxGeometry relative="1" as="geometry">
            <mxPoint x="379.58" y="200" as="sourcePoint" />
            <mxPoint x="379.58" y="237" as="targetPoint" />
            <Array as="points">
              <mxPoint x="379.58" y="210" />
              <mxPoint x="379.58" y="210" />
            </Array>
          </mxGeometry>
        </mxCell>
        <mxCell id="iPQso0IQ2j6cqO8IhBqE-5" style="edgeStyle=orthogonalEdgeStyle;rounded=0;orthogonalLoop=1;jettySize=auto;html=1;exitX=0.5;exitY=1;exitDx=0;exitDy=0;entryX=0.061;entryY=-0.083;entryDx=0;entryDy=0;entryPerimeter=0;" edge="1" parent="1">
          <mxGeometry relative="1" as="geometry">
            <mxPoint x="419.58" y="200" as="sourcePoint" />
            <mxPoint x="419.58" y="237" as="targetPoint" />
            <Array as="points">
              <mxPoint x="419.58" y="210" />
              <mxPoint x="419.58" y="210" />
            </Array>
          </mxGeometry>
        </mxCell>
        <mxCell id="iPQso0IQ2j6cqO8IhBqE-6" style="edgeStyle=orthogonalEdgeStyle;rounded=0;orthogonalLoop=1;jettySize=auto;html=1;exitX=0.5;exitY=1;exitDx=0;exitDy=0;entryX=0.061;entryY=-0.083;entryDx=0;entryDy=0;entryPerimeter=0;" edge="1" parent="1">
          <mxGeometry relative="1" as="geometry">
            <mxPoint x="460.08" y="200" as="sourcePoint" />
            <mxPoint x="460.08" y="237" as="targetPoint" />
          </mxGeometry>
        </mxCell>
        <mxCell id="iPQso0IQ2j6cqO8IhBqE-7" style="edgeStyle=orthogonalEdgeStyle;rounded=0;orthogonalLoop=1;jettySize=auto;html=1;exitX=0.5;exitY=1;exitDx=0;exitDy=0;entryX=0.061;entryY=-0.083;entryDx=0;entryDy=0;entryPerimeter=0;" edge="1" parent="1">
          <mxGeometry relative="1" as="geometry">
            <mxPoint x="499.58" y="200" as="sourcePoint" />
            <mxPoint x="499.58" y="237" as="targetPoint" />
            <Array as="points">
              <mxPoint x="499.58" y="210" />
              <mxPoint x="499.58" y="210" />
            </Array>
          </mxGeometry>
        </mxCell>
        <mxCell id="iPQso0IQ2j6cqO8IhBqE-8" style="edgeStyle=orthogonalEdgeStyle;rounded=0;orthogonalLoop=1;jettySize=auto;html=1;exitX=0.5;exitY=1;exitDx=0;exitDy=0;entryX=0.061;entryY=-0.083;entryDx=0;entryDy=0;entryPerimeter=0;" edge="1" parent="1">
          <mxGeometry relative="1" as="geometry">
            <mxPoint x="539.58" y="200" as="sourcePoint" />
            <mxPoint x="539.58" y="237" as="targetPoint" />
            <Array as="points">
              <mxPoint x="539.58" y="210" />
              <mxPoint x="539.58" y="210" />
            </Array>
          </mxGeometry>
        </mxCell>
        <mxCell id="iPQso0IQ2j6cqO8IhBqE-9" style="edgeStyle=orthogonalEdgeStyle;rounded=0;orthogonalLoop=1;jettySize=auto;html=1;exitX=0.5;exitY=1;exitDx=0;exitDy=0;entryX=0.061;entryY=-0.083;entryDx=0;entryDy=0;entryPerimeter=0;" edge="1" parent="1">
          <mxGeometry relative="1" as="geometry">
            <mxPoint x="579.58" y="200" as="sourcePoint" />
            <mxPoint x="579.58" y="237" as="targetPoint" />
            <Array as="points">
              <mxPoint x="579.58" y="210" />
              <mxPoint x="579.58" y="210" />
            </Array>
          </mxGeometry>
        </mxCell>
        <mxCell id="iPQso0IQ2j6cqO8IhBqE-10" value="&lt;div&gt;n&lt;sub&gt;p&lt;/sub&gt;&amp;nbsp; Partial Rounds&lt;/div&gt;" style="rounded=1;whiteSpace=wrap;html=1;" vertex="1" parent="1">
          <mxGeometry x="280" y="240" width="320" height="40" as="geometry" />
        </mxCell>
        <mxCell id="iPQso0IQ2j6cqO8IhBqE-11" style="edgeStyle=orthogonalEdgeStyle;rounded=0;orthogonalLoop=1;jettySize=auto;html=1;exitX=0.5;exitY=1;exitDx=0;exitDy=0;entryX=0.061;entryY=-0.083;entryDx=0;entryDy=0;entryPerimeter=0;" edge="1" parent="1">
          <mxGeometry relative="1" as="geometry">
            <mxPoint x="300.01" y="280" as="sourcePoint" />
            <mxPoint x="300.01" y="317" as="targetPoint" />
          </mxGeometry>
        </mxCell>
        <mxCell id="iPQso0IQ2j6cqO8IhBqE-12" style="edgeStyle=orthogonalEdgeStyle;rounded=0;orthogonalLoop=1;jettySize=auto;html=1;exitX=0.5;exitY=1;exitDx=0;exitDy=0;entryX=0.061;entryY=-0.083;entryDx=0;entryDy=0;entryPerimeter=0;" edge="1" parent="1">
          <mxGeometry relative="1" as="geometry">
            <mxPoint x="339.51" y="280" as="sourcePoint" />
            <mxPoint x="339.51" y="317" as="targetPoint" />
            <Array as="points">
              <mxPoint x="339.51" y="290" />
              <mxPoint x="339.51" y="290" />
            </Array>
          </mxGeometry>
        </mxCell>
        <mxCell id="iPQso0IQ2j6cqO8IhBqE-13" style="edgeStyle=orthogonalEdgeStyle;rounded=0;orthogonalLoop=1;jettySize=auto;html=1;exitX=0.5;exitY=1;exitDx=0;exitDy=0;entryX=0.061;entryY=-0.083;entryDx=0;entryDy=0;entryPerimeter=0;" edge="1" parent="1">
          <mxGeometry relative="1" as="geometry">
            <mxPoint x="379.51" y="280" as="sourcePoint" />
            <mxPoint x="379.51" y="317" as="targetPoint" />
            <Array as="points">
              <mxPoint x="379.51" y="290" />
              <mxPoint x="379.51" y="290" />
            </Array>
          </mxGeometry>
        </mxCell>
        <mxCell id="iPQso0IQ2j6cqO8IhBqE-14" style="edgeStyle=orthogonalEdgeStyle;rounded=0;orthogonalLoop=1;jettySize=auto;html=1;exitX=0.5;exitY=1;exitDx=0;exitDy=0;entryX=0.061;entryY=-0.083;entryDx=0;entryDy=0;entryPerimeter=0;" edge="1" parent="1">
          <mxGeometry relative="1" as="geometry">
            <mxPoint x="419.51" y="280" as="sourcePoint" />
            <mxPoint x="419.51" y="317" as="targetPoint" />
            <Array as="points">
              <mxPoint x="419.51" y="290" />
              <mxPoint x="419.51" y="290" />
            </Array>
          </mxGeometry>
        </mxCell>
        <mxCell id="iPQso0IQ2j6cqO8IhBqE-15" style="edgeStyle=orthogonalEdgeStyle;rounded=0;orthogonalLoop=1;jettySize=auto;html=1;exitX=0.5;exitY=1;exitDx=0;exitDy=0;entryX=0.061;entryY=-0.083;entryDx=0;entryDy=0;entryPerimeter=0;" edge="1" parent="1">
          <mxGeometry relative="1" as="geometry">
            <mxPoint x="460.01" y="280" as="sourcePoint" />
            <mxPoint x="460.01" y="317" as="targetPoint" />
          </mxGeometry>
        </mxCell>
        <mxCell id="iPQso0IQ2j6cqO8IhBqE-16" style="edgeStyle=orthogonalEdgeStyle;rounded=0;orthogonalLoop=1;jettySize=auto;html=1;exitX=0.5;exitY=1;exitDx=0;exitDy=0;entryX=0.061;entryY=-0.083;entryDx=0;entryDy=0;entryPerimeter=0;" edge="1" parent="1">
          <mxGeometry relative="1" as="geometry">
            <mxPoint x="499.51" y="280" as="sourcePoint" />
            <mxPoint x="499.51" y="317" as="targetPoint" />
            <Array as="points">
              <mxPoint x="499.51" y="290" />
              <mxPoint x="499.51" y="290" />
            </Array>
          </mxGeometry>
        </mxCell>
        <mxCell id="iPQso0IQ2j6cqO8IhBqE-17" style="edgeStyle=orthogonalEdgeStyle;rounded=0;orthogonalLoop=1;jettySize=auto;html=1;exitX=0.5;exitY=1;exitDx=0;exitDy=0;entryX=0.061;entryY=-0.083;entryDx=0;entryDy=0;entryPerimeter=0;" edge="1" parent="1">
          <mxGeometry relative="1" as="geometry">
            <mxPoint x="539.5100000000001" y="280" as="sourcePoint" />
            <mxPoint x="539.5100000000001" y="317" as="targetPoint" />
            <Array as="points">
              <mxPoint x="539.5100000000001" y="290" />
              <mxPoint x="539.5100000000001" y="290" />
            </Array>
          </mxGeometry>
        </mxCell>
        <mxCell id="iPQso0IQ2j6cqO8IhBqE-18" style="edgeStyle=orthogonalEdgeStyle;rounded=0;orthogonalLoop=1;jettySize=auto;html=1;exitX=0.5;exitY=1;exitDx=0;exitDy=0;entryX=0.061;entryY=-0.083;entryDx=0;entryDy=0;entryPerimeter=0;" edge="1" parent="1">
          <mxGeometry relative="1" as="geometry">
            <mxPoint x="579.5100000000001" y="280" as="sourcePoint" />
            <mxPoint x="579.5100000000001" y="317" as="targetPoint" />
            <Array as="points">
              <mxPoint x="579.5100000000001" y="290" />
              <mxPoint x="579.5100000000001" y="290" />
            </Array>
          </mxGeometry>
        </mxCell>
      </root>
    </mxGraphModel>
  </diagram>
</mxfile>
